<?xml version="1.0" encoding="utf-8"?>
<!-- Generator: Adobe Illustrator 24.0.1, SVG Export Plug-In . SVG Version: 6.00 Build 0)  -->
<svg version="1.1" id="Capa_1" xmlns="http://www.w3.org/2000/svg" xmlns:xlink="http://www.w3.org/1999/xlink" x="0px" y="0px"
	 viewBox="0 0 50 50" style="enable-background:new 0 0 50 50;" xml:space="preserve">
<style type="text/css">
	.st0{fill:#1D8AC7;}
</style>
<path class="st0" d="M25.2,23.1c0.8,0.5,1.2,0.1,1.6-0.2c0.4-0.3,0.7-0.5,0.4-1c-0.3-0.5-0.4-0.6-1-0.7c-0.5-0.1-0.6-0.5-0.9,0
	c-0.3,0.5,0.1,0.1-0.3,0.5c-0.4,0.3-0.7,0.4-0.3,0.9L25.2,23.1z"/>
<path class="st0" d="M29.5,21.9c0.8,0.5,1.2,0.1,1.6-0.2c0.4-0.3,0.7-0.5,0.4-1c-0.3-0.5-0.4-0.6-1-0.7c-0.5-0.1-0.6-0.5-0.9,0
	c-0.3,0.5,0.1,0.1-0.3,0.5c-0.4,0.3-0.7,0.4-0.3,0.9C29.5,21.9,29.5,21.9,29.5,21.9"/>
<path class="st0" d="M22.8,27.8c0.8,0.5,1.2,0.1,1.6-0.2c0.4-0.3,0.7-0.5,0.4-1c-0.3-0.5-0.4-0.6-1-0.7c-0.5-0.1-0.6-0.5-0.9,0
	c-0.3,0.5,0.1,0.1-0.3,0.5c-0.4,0.3-0.7,0.4-0.3,0.9L22.8,27.8z"/>
<path class="st0" d="M6.2,23.1c0.8,0.5,1.2,0.1,1.6-0.2c0.4-0.3,0.7-0.5,0.4-1c-0.3-0.5-0.4-0.6-1-0.7c-0.5-0.1-0.6-0.5-0.9,0
	c-0.3,0.5,0.1,0.1-0.3,0.5C5.8,22,5.4,22,5.8,22.5L6.2,23.1z"/>
<path class="st0" d="M14.2,19.5c0.8,0.5,1.2,0.1,1.6-0.2c0.4-0.3,0.7-0.5,0.4-1c-0.3-0.5-0.4-0.6-1-0.7c-0.5-0.1-0.6-0.5-0.9,0
	c-0.3,0.5,0.1,0.1-0.3,0.5c-0.4,0.3-0.7,0.4-0.3,0.9L14.2,19.5z"/>
<path class="st0" d="M25.3,17.3c-0.1,1.1,0.2,1.3,0.7,1.3c0.5,0,0.7-0.1,0.9-0.4c0.1-0.3,0-0.8,0-0.8s0.2-1-0.4-0.8
	c-0.6,0.1-0.6-0.2-0.9,0.2L25.3,17.3z"/>
<path class="st0" d="M17.2,23.3c-0.1,1.1,0.2,1.3,0.7,1.3c0.5,0,0.7-0.1,0.9-0.4c0.1-0.3,0-0.8,0-0.8s0.2-1-0.4-0.8
	c-0.6,0.1-0.6-0.2-0.9,0.2L17.2,23.3z"/>
<path class="st0" d="M20.8,17.6c0.6,0.3,1.1-0.1,1.9-0.6c0.7-0.5,0.3-0.7,0.2-1c-0.1-0.3,0-0.4-0.2-0.8c-1.3-0.9-1.6-1-2.1-0.7
	c-0.6,0.3-1.7,0.6-1.5,1.4c0.2,0.9,1.2,0.5,1.3,0.8c0.1,0.3,0,0,0,0S20.1,17.3,20.8,17.6"/>
<path class="st0" d="M36.5,17.7c-0.5,0.1-0.6,0.5-0.5,0.8c0.1,0.3-0.1,0.4,0.4,0.5c0.5,0.1,0.4,0.9,1.4,0.2c1-0.6,2.2-0.5,1.3-0.9
	c-1-0.4-1.4-0.3-1.4-0.3s-0.2-0.5-0.5-0.5C37,17.5,36.5,17.7,36.5,17.7"/>
<path class="st0" d="M30.2,14c-0.5,0.1-0.6,0.5-0.5,0.8c0.1,0.3-0.1,0.4,0.4,0.5c0.4,0.1,0.4,0.9,1.4,0.2c1-0.6,2.2-0.5,1.3-0.9
	c-1-0.4-1.4-0.3-1.4-0.3s-0.2-0.5-0.5-0.5C30.7,13.8,30.2,14,30.2,14"/>
<path class="st0" d="M34,24.4c-0.6-1-0.9-1-1.3-0.7c-0.4,0.2-0.5,0.5-0.5,0.8c0,0.3,0.4,0.6,0.4,0.6s0.4,0.9,0.8,0.5
	c0.4-0.4,0.6-0.1,0.6-0.6V24.4z"/>
<path class="st0" d="M37.6,21.7c-0.7,0.1-0.9,0.7-1.2,1.6c-0.3,0.9,0.1,0.8,0.3,1c0.2,0.1,0.1,0.4,0.6,0.5c1.6,0,1.9,0,2.2-0.6
	c0.3-0.6,1.1-1.4,0.5-2c-0.7-0.6-1.3,0.2-1.6,0.1c-0.3-0.1,0,0,0,0S38.2,21.5,37.6,21.7"/>
<path class="st0" d="M42.5,13.9c-0.7,0.1-1,0.7-1.2,1.6c-0.3,0.9,0.1,0.8,0.3,1c0.2,0.1,0.1,0.4,0.6,0.5c1.6,0,1.9,0,2.2-0.6
	c0.3-0.6,1.1-1.4,0.5-2c-0.7-0.6-1.3,0.2-1.6,0.1c-0.3-0.1,0,0,0,0S43.2,13.8,42.5,13.9"/>
<path class="st0" d="M25.2,23.1c0.8,0.5,1.2,0.1,1.6-0.2c0.4-0.3,0.7-0.5,0.4-1c-0.3-0.5-0.4-0.6-1-0.7c-0.5-0.1-0.6-0.5-0.9,0
	c-0.3,0.5,0.1,0.1-0.3,0.5c-0.4,0.3-0.7,0.4-0.3,0.9L25.2,23.1z"/>
<path class="st0" d="M29.5,21.9c0.8,0.5,1.2,0.1,1.6-0.2c0.4-0.3,0.7-0.5,0.4-1c-0.3-0.5-0.4-0.6-1-0.7c-0.5-0.1-0.6-0.5-0.9,0
	c-0.3,0.5,0.1,0.1-0.3,0.5c-0.4,0.3-0.7,0.4-0.3,0.9C29.5,21.9,29.5,21.9,29.5,21.9"/>
<path class="st0" d="M22.8,27.8c0.8,0.5,1.2,0.1,1.6-0.2c0.4-0.3,0.7-0.5,0.4-1c-0.3-0.5-0.4-0.6-1-0.7c-0.5-0.1-0.6-0.5-0.9,0
	c-0.3,0.5,0.1,0.1-0.3,0.5c-0.4,0.3-0.7,0.4-0.3,0.9L22.8,27.8z"/>
<path class="st0" d="M6.2,23.1c0.8,0.5,1.2,0.1,1.6-0.2c0.4-0.3,0.7-0.5,0.4-1c-0.3-0.5-0.4-0.6-1-0.7c-0.5-0.1-0.6-0.5-0.9,0
	c-0.3,0.5,0.1,0.1-0.3,0.5C5.8,22,5.4,22,5.8,22.5L6.2,23.1z"/>
<path class="st0" d="M14.2,19.5c0.8,0.5,1.2,0.1,1.6-0.2c0.4-0.3,0.7-0.5,0.4-1c-0.3-0.5-0.4-0.6-1-0.7c-0.5-0.1-0.6-0.5-0.9,0
	c-0.3,0.5,0.1,0.1-0.3,0.5c-0.4,0.3-0.7,0.4-0.3,0.9L14.2,19.5z"/>
<path class="st0" d="M25.3,17.3c-0.1,1.1,0.2,1.3,0.7,1.3c0.5,0,0.7-0.1,0.9-0.4c0.1-0.3,0-0.8,0-0.8s0.2-1-0.4-0.8
	c-0.6,0.1-0.6-0.2-0.9,0.2L25.3,17.3z"/>
<path class="st0" d="M17.2,23.3c-0.1,1.1,0.2,1.3,0.7,1.3c0.5,0,0.7-0.1,0.9-0.4c0.1-0.3,0-0.8,0-0.8s0.2-1-0.4-0.8
	c-0.6,0.1-0.6-0.2-0.9,0.2L17.2,23.3z"/>
<path class="st0" d="M20.8,17.6c0.6,0.3,1.1-0.1,1.9-0.6c0.7-0.5,0.3-0.7,0.2-1c-0.1-0.3,0-0.4-0.2-0.8c-1.3-0.9-1.6-1-2.1-0.7
	c-0.6,0.3-1.7,0.6-1.5,1.4c0.2,0.9,1.2,0.5,1.3,0.8c0.1,0.3,0,0,0,0S20.1,17.3,20.8,17.6"/>
<path class="st0" d="M36.5,17.7c-0.5,0.1-0.6,0.5-0.5,0.8c0.1,0.3-0.1,0.4,0.4,0.5c0.5,0.1,0.4,0.9,1.4,0.2c1-0.6,2.2-0.5,1.3-0.9
	c-1-0.4-1.4-0.3-1.4-0.3s-0.2-0.5-0.5-0.5C37,17.5,36.5,17.7,36.5,17.7"/>
<path class="st0" d="M30.2,14c-0.5,0.1-0.6,0.5-0.5,0.8c0.1,0.3-0.1,0.4,0.4,0.5c0.4,0.1,0.4,0.9,1.4,0.2c1-0.6,2.2-0.5,1.3-0.9
	c-1-0.4-1.4-0.3-1.4-0.3s-0.2-0.5-0.5-0.5C30.7,13.8,30.2,14,30.2,14"/>
<path class="st0" d="M34,24.4c-0.6-1-0.9-1-1.3-0.7c-0.4,0.2-0.5,0.5-0.5,0.8c0,0.3,0.4,0.6,0.4,0.6s0.4,0.9,0.8,0.5
	c0.4-0.4,0.6-0.1,0.6-0.6V24.4z"/>
<path class="st0" d="M37.6,21.7c-0.7,0.1-0.9,0.7-1.2,1.6c-0.3,0.9,0.1,0.8,0.3,1c0.2,0.1,0.1,0.4,0.6,0.5c1.6,0,1.9,0,2.2-0.6
	c0.3-0.6,1.1-1.4,0.5-2c-0.7-0.6-1.3,0.2-1.6,0.1c-0.3-0.1,0,0,0,0S38.2,21.5,37.6,21.7"/>
<path class="st0" d="M42.5,13.9c-0.7,0.1-1,0.7-1.2,1.6c-0.3,0.9,0.1,0.8,0.3,1c0.2,0.1,0.1,0.4,0.6,0.5c1.6,0,1.9,0,2.2-0.6
	c0.3-0.6,1.1-1.4,0.5-2c-0.7-0.6-1.3,0.2-1.6,0.1c-0.3-0.1,0,0,0,0S43.2,13.8,42.5,13.9"/>
<path class="st0" d="M25.2,23.1c0.8,0.5,1.2,0.1,1.6-0.2c0.4-0.3,0.7-0.5,0.4-1c-0.3-0.5-0.4-0.6-1-0.7c-0.5-0.1-0.6-0.5-0.9,0
	c-0.3,0.5,0.1,0.1-0.3,0.5c-0.4,0.3-0.7,0.4-0.3,0.9L25.2,23.1z"/>
<path class="st0" d="M29.5,21.9c0.8,0.5,1.2,0.1,1.6-0.2c0.4-0.3,0.7-0.5,0.4-1c-0.3-0.5-0.4-0.6-1-0.7c-0.5-0.1-0.6-0.5-0.9,0
	c-0.3,0.5,0.1,0.1-0.3,0.5c-0.4,0.3-0.7,0.4-0.3,0.9C29.5,21.9,29.5,21.9,29.5,21.9"/>
<path class="st0" d="M22.8,27.8c0.8,0.5,1.2,0.1,1.6-0.2c0.4-0.3,0.7-0.5,0.4-1c-0.3-0.5-0.4-0.6-1-0.7c-0.5-0.1-0.6-0.5-0.9,0
	c-0.3,0.5,0.1,0.1-0.3,0.5c-0.4,0.3-0.7,0.4-0.3,0.9L22.8,27.8z"/>
<path class="st0" d="M6.2,23.1c0.8,0.5,1.2,0.1,1.6-0.2c0.4-0.3,0.7-0.5,0.4-1c-0.3-0.5-0.4-0.6-1-0.7c-0.5-0.1-0.6-0.5-0.9,0
	c-0.3,0.5,0.1,0.1-0.3,0.5C5.8,22,5.4,22,5.8,22.5L6.2,23.1z"/>
<path class="st0" d="M14.2,19.5c0.8,0.5,1.2,0.1,1.6-0.2c0.4-0.3,0.7-0.5,0.4-1c-0.3-0.5-0.4-0.6-1-0.7c-0.5-0.1-0.6-0.5-0.9,0
	c-0.3,0.5,0.1,0.1-0.3,0.5c-0.4,0.3-0.7,0.4-0.3,0.9L14.2,19.5z"/>
<path class="st0" d="M25.3,17.3c-0.1,1.1,0.2,1.3,0.7,1.3c0.5,0,0.7-0.1,0.9-0.4c0.1-0.3,0-0.8,0-0.8s0.2-1-0.4-0.8
	c-0.6,0.1-0.6-0.2-0.9,0.2L25.3,17.3z"/>
<path class="st0" d="M17.2,23.3c-0.1,1.1,0.2,1.3,0.7,1.3c0.5,0,0.7-0.1,0.9-0.4c0.1-0.3,0-0.8,0-0.8s0.2-1-0.4-0.8
	c-0.6,0.1-0.6-0.2-0.9,0.2L17.2,23.3z"/>
<path class="st0" d="M20.8,17.6c0.6,0.3,1.1-0.1,1.9-0.6c0.7-0.5,0.3-0.7,0.2-1c-0.1-0.3,0-0.4-0.2-0.8c-1.3-0.9-1.6-1-2.1-0.7
	c-0.6,0.3-1.7,0.6-1.5,1.4c0.2,0.9,1.2,0.5,1.3,0.8c0.1,0.3,0,0,0,0S20.1,17.3,20.8,17.6"/>
<path class="st0" d="M36.5,17.7c-0.5,0.1-0.6,0.5-0.5,0.8c0.1,0.3-0.1,0.4,0.4,0.5c0.5,0.1,0.4,0.9,1.4,0.2c1-0.6,2.2-0.5,1.3-0.9
	c-1-0.4-1.4-0.3-1.4-0.3s-0.2-0.5-0.5-0.5C37,17.5,36.5,17.7,36.5,17.7"/>
<path class="st0" d="M30.2,14c-0.5,0.1-0.6,0.5-0.5,0.8c0.1,0.3-0.1,0.4,0.4,0.5c0.4,0.1,0.4,0.9,1.4,0.2c1-0.6,2.2-0.5,1.3-0.9
	c-1-0.4-1.4-0.3-1.4-0.3s-0.2-0.5-0.5-0.5C30.7,13.8,30.2,14,30.2,14"/>
<path class="st0" d="M34,24.4c-0.6-1-0.9-1-1.3-0.7c-0.4,0.2-0.5,0.5-0.5,0.8c0,0.3,0.4,0.6,0.4,0.6s0.4,0.9,0.8,0.5
	c0.4-0.4,0.6-0.1,0.6-0.6V24.4z"/>
<path class="st0" d="M37.6,21.7c-0.7,0.1-0.9,0.7-1.2,1.6c-0.3,0.9,0.1,0.8,0.3,1c0.2,0.1,0.1,0.4,0.6,0.5c1.6,0,1.9,0,2.2-0.6
	c0.3-0.6,1.1-1.4,0.5-2c-0.7-0.6-1.3,0.2-1.6,0.1c-0.3-0.1,0,0,0,0S38.2,21.5,37.6,21.7"/>
<path class="st0" d="M42.5,13.9c-0.7,0.1-1,0.7-1.2,1.6c-0.3,0.9,0.1,0.8,0.3,1c0.2,0.1,0.1,0.4,0.6,0.5c1.6,0,1.9,0,2.2-0.6
	c0.3-0.6,1.1-1.4,0.5-2c-0.7-0.6-1.3,0.2-1.6,0.1c-0.3-0.1,0,0,0,0S43.2,13.8,42.5,13.9"/>
</svg>
