<?xml version="1.0" encoding="utf-8"?>
<!-- Generator: Adobe Illustrator 24.0.1, SVG Export Plug-In . SVG Version: 6.00 Build 0)  -->
<svg version="1.1" id="Capa_1" xmlns="http://www.w3.org/2000/svg" xmlns:xlink="http://www.w3.org/1999/xlink" x="0px" y="0px"
	 viewBox="0 0 50 50" style="enable-background:new 0 0 50 50;" xml:space="preserve">
<style type="text/css">
	.st0{fill:#1486C5;}
</style>
<path class="st0" d="M24.5,8c0,0,0.3-0.4-0.5-0.8c0-0.1,0-0.2-0.1-0.2c0-0.1,0-0.3,0-0.4c0-0.1,0-0.3,0-0.3c0-0.1-0.1,0-0.1-0.1
	c-0.1-0.1,0-0.2-0.1-0.3c0,0,0-0.1-0.1-0.1c0,0-0.1,0-0.1,0c0,0,0,0,0-0.1c0-0.1,0.1-0.2,0-0.3c-0.1-0.2-0.2,0-0.3,0.1
	c0-0.1,0-0.3,0-0.4c0-0.1-0.2-0.1-0.2,0c0,0,0,0.1,0,0.1c0-0.1,0-0.1,0-0.2c0-0.1-0.2-0.1-0.2,0c0,0,0,0.1,0,0.1c0,0,0,0,0,0
	c0-0.1,0-0.1-0.1-0.2c0,0-0.1,0-0.1,0c0,0,0,0.1-0.1,0.1c0,0,0,0,0,0c0,0,0,0,0,0c0,0,0,0,0,0c0,0-0.1,0-0.1,0.1v0c0,0,0,0,0,0
	c-0.1,0-0.2,0-0.3,0.1c0,0,0,0.1,0,0.1c0,0-0.1,0-0.1,0c0,0,0,0,0,0.1c-0.1,0-0.1,0-0.2,0c-0.2,0-0.2,0.2-0.3,0.3
	c-0.3,0.1-0.6,0.4-0.9,0.7c-0.7,1-1,2.3-1.3,3c-0.3,0.8-0.4,1.7-0.9,2.2c-0.6,0.5-3.7,0.8-4.8,0.7c-1.2,0-2.8,0.6-2.8,0.6
	s-1-0.7-1.4-1.4c-0.1-0.3-0.3-0.4-0.5-0.4c0-0.2-0.2-0.3-0.4-0.3c-0.1,0-0.2,0.1-0.3,0.1C7.9,11,7.7,10.9,7.4,11
	c-0.2,0.1-0.3,0.2-0.4,0.3c-0.1-0.1-0.3-0.1-0.4,0l0,0c0,0-0.1,0-0.1,0c-0.2,0-0.3,0.1-0.5,0.2c-0.1,0.1-0.2,0.3-0.2,0.5
	c0,0.1,0,0.3,0.1,0.4c-0.1,0.1-0.3,0.3-0.4,0.4c-0.1,0.3-0.1,0.6,0.1,0.8c-0.1,0.1-0.1,0.1-0.1,0.2c0,0.1,0.1,0.3,0.2,0.4
	c-0.2,0.1-0.3,0.4-0.1,0.7c0.3,0.6,0.8,0.4,0.8,0.4s0,0.4,0.3,0.6c0.2,0.1,0.4,0.1,0.5,0c0,0.1,0,0.1,0.1,0.2
	c0.1,0.1,0.1,0.1,0.2,0.1c0.1,0,0.2,0,0.3,0c0,0,0,0,0,0c0,0,0,0,0.1,0l1.4,0.6c0,0-0.1,0.6,0.5,0.8c0,0,0.2,0.8,0.5,0.8h0.6
	c0,0,0.5,0.4,0.5,0.8c0,0.4,0.5,0.3,0.5,0.3s0.1,1.1,1.3,1.6c1.2,0.5,1,1.1,1,1.1l-0.4,2.7c0,0-1.3,0.5-1.3,0.9l0.2-0.1
	c0,0,0.2,0.3,0.7-0.3c0,0-0.1,0.6,0.5,0.5c0,0,0.3,0.1,0.4,0.5c0,0,0.7,0.3,1.1,0.4c0.4,0.1,0.5-0.1,0.6,0c0.1,0.1,0.3,0.3,0.3,0.3
	s0.1-0.5-0.5-0.6c-0.6-0.1-0.9-0.2-1-0.4c0,0,0.5-0.3,0.8-0.3s0.5-0.2,0.5-0.2s0.1-0.2,0.3,0c0,0,0.1-0.4-0.5-0.2
	c-0.6,0.2-1.1,0.4-1.4,0.2c0,0,0-1.2,0.1-2.1c0.1-0.8,1.6-1.5,1.6-1.5s0.9,0.1,1.2-0.3c0,0,0.4,1.3,0.6,1.8c0.2,0.5,0.3,1.2-0.2,1.8
	c0,0-0.4,0.2-0.3,0.5c0,0,0.3-0.2,0.5-0.2c0.2,0,0.3-0.5,0.3-0.5s0.6,0.5,0.9,0.6c0.3,0.2,0.8,0.3,0.8,0.3s0.2-0.1,0.3,0.2
	c0,0,0.2-0.3-0.2-0.5l-0.5-0.3c0,0,0.6,0,1.1,0.2c0.5,0.2,0.9,0.3,0.9,0.2c0,0,0.4,0,0.5,0.2c0,0,0.1-0.4-0.5-0.5
	c0,0-0.7-0.2-1.1-0.4c-0.5-0.1-0.9-0.2-0.9-0.2s0.4-0.2,0.4-0.6L19,24.8c0,0-0.7-1.4-0.8-2.6c0,0,0.4,0.1,0.4-0.4
	c0.1-0.5,0.4-1.4,0.7-1.6c0.3-0.2,1.2-0.5,1.8-1c0.5-0.5,2.4-1.4,2.6-2.4c0.2-1,0.4-3.6,0.3-4.9c-0.1-1.2-0.3-1.5-0.7-2
	c-0.2-0.2-0.3-0.4-0.5-0.7c0,0,0,0,0,0c0.2,0,0.4-0.1,0.6-0.2c0.3-0.3,0.3-0.8,0.3-1.2C23.9,7.8,24.2,7.9,24.5,8"/>
<path class="st0" d="M27.6,24.3c0,0,0.3-0.4-0.5-0.8c0-0.1,0-0.2-0.1-0.2c0-0.1,0-0.3,0-0.4c0-0.1,0-0.3,0-0.3c0-0.1-0.1,0-0.1-0.1
	c-0.1-0.1,0-0.2-0.1-0.3c0,0,0-0.1-0.1-0.1c0,0-0.1,0-0.1,0c0,0,0,0,0-0.1c0-0.1,0.1-0.2,0-0.3c-0.1-0.2-0.2,0-0.3,0.1
	c0-0.1,0-0.3,0-0.4c0-0.1-0.2-0.1-0.2,0c0,0,0,0.1,0,0.1c0-0.1,0-0.1,0-0.2c0-0.1-0.2-0.1-0.2,0c0,0,0,0.1,0,0.1c0,0,0,0,0,0
	c0-0.1,0-0.1-0.1-0.2c0,0-0.1,0-0.1,0c0,0,0,0.1-0.1,0.1c0,0,0,0,0,0c0,0,0,0,0,0c0,0,0,0,0,0c0,0-0.1,0-0.1,0.1v0c0,0,0,0,0,0
	c-0.1,0-0.2,0-0.3,0.1c0,0,0,0.1,0,0.1c0,0-0.1,0-0.1,0c0,0,0,0,0,0.1c-0.1,0-0.1,0-0.2,0c-0.2,0-0.2,0.2-0.3,0.3
	c-0.3,0.1-0.6,0.4-0.9,0.7c-0.7,1-1,2.3-1.3,3c-0.3,0.8-0.4,1.7-0.9,2.2c-0.6,0.5-3.7,0.8-4.8,0.7c-1.2,0-2.8,0.6-2.8,0.6
	s-1-0.7-1.4-1.4c-0.1-0.3-0.3-0.4-0.5-0.4c0-0.2-0.2-0.3-0.4-0.3c-0.1,0-0.2,0.1-0.3,0.1c-0.1-0.1-0.3-0.2-0.6-0.1
	c-0.2,0.1-0.3,0.2-0.4,0.3c-0.1-0.1-0.3-0.1-0.4,0l0,0c0,0-0.1,0-0.1,0c-0.2,0-0.3,0.1-0.5,0.2C9,28,8.9,28.2,8.9,28.4
	c0,0.1,0,0.3,0.1,0.4c-0.1,0.1-0.3,0.3-0.4,0.4c-0.1,0.3-0.1,0.6,0.1,0.8c-0.1,0.1-0.1,0.1-0.1,0.2c0,0.1,0.1,0.3,0.2,0.4
	c-0.2,0.1-0.3,0.4-0.1,0.7c0.3,0.6,0.8,0.4,0.8,0.4s0,0.4,0.3,0.6c0.2,0.1,0.4,0.1,0.5,0c0,0.1,0,0.1,0.1,0.2
	c0.1,0.1,0.1,0.1,0.2,0.1c0.1,0,0.2,0,0.3,0c0,0,0,0,0,0c0,0,0,0,0.1,0l1.4,0.6c0,0-0.1,0.6,0.5,0.8c0,0,0.2,0.8,0.5,0.8h0.6
	c0,0,0.5,0.4,0.5,0.8c0,0.4,0.5,0.3,0.5,0.3s0.1,1.1,1.3,1.6c1.2,0.5,1,1.1,1,1.1l-0.4,2.7c0,0-1.3,0.5-1.3,0.9l0.2-0.1
	c0,0,0.2,0.3,0.7-0.3c0,0-0.1,0.6,0.5,0.5c0,0,0.3,0.1,0.4,0.5c0,0,0.7,0.3,1.1,0.4c0.4,0.1,0.5-0.1,0.6,0c0.1,0.1,0.3,0.3,0.3,0.3
	s0.1-0.5-0.5-0.6c-0.6-0.1-0.9-0.2-1-0.4c0,0,0.5-0.3,0.8-0.3c0.3,0,0.5-0.2,0.5-0.2s0.1-0.2,0.3,0c0,0,0.1-0.4-0.5-0.2
	c-0.6,0.2-1.1,0.4-1.4,0.2c0,0,0-1.2,0.1-2.1c0.1-0.8,1.6-1.5,1.6-1.5s0.9,0.1,1.2-0.3c0,0,0.4,1.3,0.6,1.8c0.2,0.5,0.3,1.2-0.2,1.8
	c0,0-0.4,0.2-0.3,0.5c0,0,0.3-0.2,0.5-0.2c0.2,0,0.3-0.5,0.3-0.5s0.6,0.5,0.9,0.6c0.3,0.2,0.8,0.3,0.8,0.3s0.2-0.1,0.3,0.2
	c0,0,0.2-0.3-0.2-0.5l-0.5-0.3c0,0,0.6,0,1.1,0.2c0.5,0.2,0.9,0.3,0.9,0.2c0,0,0.4,0,0.5,0.2c0,0,0.1-0.4-0.5-0.5
	c0,0-0.7-0.2-1.1-0.4c-0.5-0.1-0.9-0.2-0.9-0.2s0.4-0.2,0.4-0.6l-0.7,0.3c0,0-0.7-1.4-0.8-2.6c0,0,0.4,0.1,0.4-0.4
	c0.1-0.5,0.4-1.4,0.7-1.6c0.3-0.2,1.2-0.5,1.8-1c0.5-0.5,2.4-1.4,2.6-2.4c0.2-1,0.4-3.6,0.3-4.9c-0.1-1.2-0.3-1.5-0.7-2
	c-0.2-0.2-0.3-0.4-0.5-0.7c0,0,0,0,0,0c0.2,0,0.4-0.1,0.6-0.2c0.3-0.3,0.3-0.8,0.3-1.2C27,24.2,27.3,24.2,27.6,24.3"/>
<path class="st0" d="M43.9,10.3c0,0,0.3-0.4-0.5-0.8c0-0.1,0-0.2-0.1-0.2c0-0.1,0-0.3,0-0.4c0-0.1,0-0.3,0-0.3c0-0.1-0.1,0-0.1-0.1
	c-0.1-0.1,0-0.2-0.1-0.3c0,0,0-0.1-0.1-0.1c0,0-0.1,0-0.1,0c0,0,0,0,0-0.1c0-0.1,0.1-0.2,0-0.3c-0.1-0.2-0.2,0-0.3,0.1
	c0-0.1,0-0.3,0-0.4c0-0.1-0.2-0.1-0.2,0c0,0,0,0.1,0,0.1c0-0.1,0-0.1,0-0.2c0-0.1-0.2-0.1-0.2,0c0,0,0,0.1,0,0.1c0,0,0,0,0,0
	c0-0.1,0-0.1-0.1-0.2c0,0-0.1,0-0.1,0c0,0,0,0.1-0.1,0.1c0,0,0,0,0,0c0,0,0,0,0,0c0,0,0,0,0,0c0,0-0.1,0-0.1,0.1v0c0,0,0,0,0,0
	c-0.1,0-0.2,0-0.3,0.1c0,0,0,0.1,0,0.1c0,0-0.1,0-0.1,0c0,0,0,0,0,0.1c-0.1,0-0.1,0-0.2,0c-0.2,0-0.2,0.2-0.3,0.3
	c-0.3,0.1-0.6,0.4-0.9,0.7c-0.7,1-1,2.3-1.3,3c-0.3,0.8-0.4,1.7-0.9,2.2c-0.6,0.5-3.7,0.8-4.8,0.7c-1.2,0-2.8,0.6-2.8,0.6
	s-1-0.7-1.4-1.4c-0.1-0.3-0.3-0.4-0.5-0.4c0-0.2-0.2-0.3-0.4-0.3c-0.1,0-0.2,0.1-0.3,0.1c-0.1-0.1-0.3-0.2-0.6-0.1
	c-0.2,0.1-0.3,0.2-0.4,0.3c-0.1-0.1-0.3-0.1-0.4,0l0,0c0,0-0.1,0-0.1,0c-0.2,0-0.3,0.1-0.5,0.2c-0.1,0.1-0.2,0.3-0.2,0.5
	c0,0.1,0,0.3,0.1,0.4c-0.1,0.1-0.3,0.3-0.4,0.4c-0.1,0.3-0.1,0.6,0.1,0.8C25,16,25,16.1,25,16.2c0,0.1,0.1,0.3,0.2,0.4
	c-0.2,0.1-0.3,0.4-0.1,0.7c0.3,0.6,0.8,0.4,0.8,0.4s0,0.4,0.3,0.6c0.2,0.1,0.4,0.1,0.5,0c0,0.1,0,0.1,0.1,0.2
	c0.1,0.1,0.1,0.1,0.2,0.1c0.1,0,0.2,0,0.3,0c0,0,0,0,0,0c0,0,0,0,0.1,0l1.4,0.6c0,0-0.1,0.6,0.5,0.8c0,0,0.2,0.8,0.5,0.8h0.6
	c0,0,0.5,0.4,0.5,0.8c0,0.4,0.5,0.3,0.5,0.3s0.1,1.1,1.3,1.6c1.2,0.5,1,1.1,1,1.1l-0.4,2.7c0,0-1.3,0.5-1.3,0.9l0.2-0.1
	c0,0,0.2,0.3,0.7-0.3c0,0-0.1,0.6,0.5,0.5c0,0,0.3,0.1,0.4,0.5c0,0,0.7,0.3,1.1,0.4c0.4,0.1,0.5-0.1,0.6,0c0.1,0.1,0.3,0.3,0.3,0.3
	s0.1-0.5-0.5-0.6c-0.6-0.1-0.9-0.2-1-0.4c0,0,0.5-0.3,0.8-0.3c0.3,0,0.5-0.2,0.5-0.2s0.1-0.2,0.3,0c0,0,0.1-0.4-0.5-0.2
	c-0.6,0.2-1.1,0.4-1.4,0.2c0,0,0-1.2,0.1-2.1c0.1-0.8,1.6-1.5,1.6-1.5s0.9,0.1,1.2-0.3c0,0,0.4,1.3,0.6,1.8c0.2,0.5,0.3,1.2-0.2,1.8
	c0,0-0.4,0.2-0.3,0.5c0,0,0.3-0.2,0.5-0.2s0.3-0.5,0.3-0.5s0.6,0.5,0.9,0.6c0.3,0.2,0.8,0.3,0.8,0.3s0.2-0.1,0.3,0.2
	c0,0,0.2-0.3-0.2-0.5l-0.5-0.3c0,0,0.6,0,1.1,0.2c0.5,0.2,0.9,0.3,0.9,0.2c0,0,0.4,0,0.5,0.2c0,0,0.1-0.4-0.5-0.5
	c0,0-0.7-0.2-1.1-0.4c-0.5-0.1-0.9-0.2-0.9-0.2s0.4-0.2,0.4-0.6l-0.7,0.3c0,0-0.7-1.4-0.8-2.6c0,0,0.4,0.1,0.4-0.4
	c0.1-0.5,0.4-1.4,0.7-1.6c0.3-0.2,1.2-0.5,1.8-1c0.5-0.5,2.4-1.4,2.6-2.4c0.2-1,0.4-3.6,0.3-4.9c-0.1-1.2-0.3-1.5-0.7-2
	c-0.2-0.2-0.3-0.4-0.5-0.7c0,0,0,0,0,0c0.2,0,0.4-0.1,0.6-0.2c0.3-0.3,0.3-0.8,0.3-1.2C43.3,10.2,43.7,10.2,43.9,10.3"/>
</svg>
