<?xml version="1.0" standalone="no"?>
<!DOCTYPE svg PUBLIC "-//W3C//DTD SVG 20010904//EN"
 "http://www.w3.org/TR/2001/REC-SVG-20010904/DTD/svg10.dtd">
<svg version="1.0" xmlns="http://www.w3.org/2000/svg"
 width="500.000000pt" height="500.000000pt" viewBox="0 0 500.000000 500.000000"
 preserveAspectRatio="xMidYMid meet">
<metadata>
Created by potrace 1.16, written by Peter Selinger 2001-2019
</metadata>
<g transform="translate(0.000000,500.000000) scale(0.100000,-0.100000)"
fill="#000000" stroke="none">
<path d="M2059 3694 l-36 -15 30 -75 c27 -64 34 -73 52 -68 62 18 93 77 50 99
-13 7 -20 20 -20 40 0 36 -22 42 -76 19z"/>
<path d="M3293 3331 c-72 -45 -41 -150 45 -151 71 0 110 90 60 138 -34 31 -68
35 -105 13z"/>
<path d="M2194 2895 c-6 -13 -17 -15 -65 -12 -47 4 -59 2 -59 -10 0 -8 5 -11
11 -8 6 4 20 -3 31 -15 l20 -21 -27 -60 c-30 -67 -29 -77 12 -202 17 -49 38
-90 58 -111 35 -37 100 -76 126 -76 16 0 43 -27 77 -76 7 -11 2 1 -11 26 -14
25 -35 50 -48 57 -13 7 -24 17 -24 23 0 13 -24 29 -39 26 -6 -2 -8 -1 -3 1 15
9 6 24 -12 18 -11 -3 -24 1 -32 12 -9 11 -10 14 -1 9 7 -4 12 -2 12 4 0 6 6 8
13 4 6 -4 8 -3 4 1 -4 5 -20 9 -35 10 -22 0 -32 11 -65 70 -34 63 -37 76 -33
130 4 64 34 144 47 123 9 -15 83 56 77 74 -7 19 -27 21 -34 3z"/>
<path d="M2910 2686 c-8 -7 -39 -21 -67 -31 -50 -16 -76 -33 -33 -22 11 3 20
1 20 -4 0 -5 -7 -9 -15 -9 -8 0 -15 -7 -15 -16 0 -23 -25 -44 -52 -44 -18 0
-20 -2 -8 -10 13 -8 13 -11 -1 -26 -13 -12 -21 -14 -37 -5 -11 6 -27 8 -36 5
-20 -8 -29 -34 -12 -34 8 0 16 5 18 12 3 7 11 9 24 3 10 -4 22 -8 25 -7 4 1 9
-7 12 -18 3 -11 0 -18 -7 -17 -6 1 -10 -6 -10 -15 1 -10 -2 -18 -8 -18 -5 0
-6 -6 -2 -12 4 -7 -6 -2 -22 12 -20 18 -24 19 -11 4 16 -19 16 -23 1 -52 -17
-35 -18 -36 -42 -23 -9 4 -29 11 -44 15 -32 7 -38 -9 -11 -29 10 -8 14 -19 9
-30 -5 -14 -9 -16 -18 -7 -18 18 -28 15 -28 -8 0 -11 -5 -20 -10 -20 -6 0 -10
7 -8 16 2 10 -3 19 -11 22 -10 3 -12 0 -7 -13 5 -14 4 -16 -8 -6 -11 9 -15 8
-18 -7 -4 -14 -14 -17 -49 -15 -40 2 -42 1 -25 -13 11 -8 23 -14 28 -14 4 0
-1 -22 -11 -49 -10 -28 -16 -53 -12 -57 3 -4 1 -4 -6 -1 -6 4 -14 1 -16 -5 -4
-10 -6 -10 -6 0 -1 17 -41 15 -41 -2 0 -17 -55 -11 -80 7 -13 10 -13 10 -1 -5
12 -16 11 -18 -10 -19 l-24 0 25 -10 c14 -6 35 -8 48 -6 15 3 22 -1 22 -11 0
-13 3 -12 16 4 8 10 12 13 8 5 -6 -11 -3 -12 12 -5 10 5 45 9 77 8 51 0 57 2
51 18 -6 21 -1 22 43 9 19 -6 35 -6 38 -1 3 5 -6 12 -20 16 -28 7 -31 24 -14
71 8 25 23 36 72 58 34 14 74 38 90 53 28 27 61 88 72 135 4 15 14 27 22 27 7
0 22 14 31 30 9 17 24 32 33 35 17 6 39 46 39 70 0 7 11 22 25 33 24 19 33 42
17 42 -4 0 -14 -6 -22 -14z"/>
<path d="M1523 1585 c-35 -63 -63 -117 -63 -120 0 -3 6 -5 14 -5 7 0 19 14 26
30 12 29 15 30 76 30 61 0 64 -1 64 -24 0 -25 16 -43 27 -32 3 3 -4 57 -17
121 -20 104 -25 115 -44 115 -16 0 -34 -25 -83 -115z"/>
<path d="M1816 1678 c-10 -45 -36 -195 -36 -206 0 -8 24 -12 75 -12 60 0 75 3
75 15 0 12 -13 15 -61 15 -59 0 -61 1 -55 23 3 12 6 30 6 40 0 14 10 17 59 17
33 0 63 5 66 10 4 6 -17 10 -56 10 l-61 0 6 31 c3 17 6 35 6 40 0 5 29 9 65 9
51 0 65 3 65 15 0 12 -15 15 -75 15 -69 0 -75 -2 -79 -22z"/>
<path d="M2025 1675 c-44 -43 -27 -88 38 -106 72 -19 87 -46 42 -75 -31 -20
-85 -10 -92 17 -6 22 -33 26 -33 4 0 -29 38 -55 81 -55 51 0 77 14 90 47 14
38 -10 69 -68 85 -36 10 -49 19 -51 35 -7 47 94 67 105 22 6 -22 33 -26 33 -4
0 8 -10 23 -22 35 -32 29 -92 27 -123 -5z"/>
<path d="M2263 1680 c-40 -24 -63 -67 -63 -120 0 -101 127 -137 192 -56 34 41
11 52 -25 11 -33 -37 -77 -42 -111 -13 -51 44 -32 132 36 165 32 16 84 0 93
-28 7 -21 35 -26 35 -6 -1 17 -21 42 -47 55 -32 18 -74 14 -110 -8z"/>
<path d="M2512 1680 c-38 -23 -62 -72 -62 -125 0 -52 44 -95 97 -95 97 0 162
104 118 190 -28 54 -93 66 -153 30z m128 -40 c19 -36 12 -88 -17 -120 -61 -66
-143 -38 -143 49 0 45 37 97 73 103 32 5 76 -11 87 -32z"/>
<path d="M2726 1608 c-9 -51 -19 -105 -22 -120 -4 -21 -2 -28 9 -28 11 0 18
20 26 68 28 160 23 159 71 25 29 -82 35 -93 56 -93 13 0 24 3 24 8 0 9 29 180
35 210 4 15 1 22 -9 22 -10 0 -19 -28 -32 -100 -10 -55 -20 -100 -24 -100 -3
0 -20 45 -39 100 -29 89 -35 100 -56 100 -21 0 -24 -7 -39 -92z"/>
<path d="M2965 1593 c-9 -59 -19 -113 -22 -120 -4 -10 11 -13 58 -13 77 0 123
24 145 75 40 96 -8 165 -114 165 l-49 0 -18 -107z m145 55 c31 -34 27 -92 -9
-129 -24 -24 -38 -29 -75 -29 -53 0 -53 0 -35 96 16 86 14 84 58 84 28 0 46
-6 61 -22z"/>
<path d="M3285 1593 c-9 -59 -19 -113 -22 -120 -4 -10 11 -13 58 -13 77 0 123
24 145 75 40 96 -8 165 -114 165 l-49 0 -18 -107z m145 55 c31 -34 27 -92 -9
-129 -24 -24 -38 -29 -75 -29 -53 0 -53 0 -35 96 16 86 14 84 58 84 28 0 46
-6 61 -22z"/>
<path d="M3586 1658 c-53 -94 -106 -190 -106 -194 0 -2 7 -4 15 -4 8 0 21 14
30 30 15 28 19 30 74 30 57 0 59 -1 65 -30 3 -18 12 -30 21 -30 11 0 15 6 11
18 -5 16 -46 210 -46 218 0 2 -9 4 -20 4 -12 0 -28 -15 -44 -42z"/>
</g>
</svg>
